<svg id="kn_logoicon"
    xmlns="http://www.w3.org/2000/svg" width="31.101" height="45.066" viewBox="0 0 31.101 45.066">
    <path id="Path_253" data-name="Path 253" d="M67.25,62A15.577,15.577,0,0,0,51.7,77.55V91.516a15.55,15.55,0,0,0,31.1,0V77.55A15.577,15.577,0,0,0,67.25,62M81.686,91.458a14.436,14.436,0,0,1-28.871,0V77.55a14.436,14.436,0,0,1,28.871,0Z" transform="translate(-51.7 -62)" fill="#00cc97"/>
    <path id="Path_254" data-name="Path 254" d="M69.11,66.5A12.91,12.91,0,0,0,56.2,79.41V93.258a12.939,12.939,0,0,0,25.878,0V79.41A12.96,12.96,0,0,0,69.11,66.5M80.9,93.317a11.795,11.795,0,0,1-23.59,0V79.41a11.795,11.795,0,0,1,23.59,0Z" transform="translate(-53.559 -63.859)" fill="#00cc97"/>
    <path id="Path_255" data-name="Path 255" d="M78.017,86.612l-9.037,7.8a2.423,2.423,0,0,0-.88,1.936,2.617,2.617,0,0,0,.88,1.936l9.037,7.8a.431.431,0,0,0,.352.117.533.533,0,0,0,.411-.176.628.628,0,0,0-.059-.822l-9.037-7.8a1.469,1.469,0,0,1-.469-1.056,1.374,1.374,0,0,1,.469-1.056l9.037-7.8a.624.624,0,0,0,.059-.822.549.549,0,0,0-.763-.059" transform="translate(-58.476 -72.118)" fill="#00cc97"/>
    <path id="Path_256" data-name="Path 256" d="M78.011,80.791,68.27,89.124a.624.624,0,0,0-.059.822.634.634,0,0,0,.411.176A.834.834,0,0,0,68.974,90l9.741-8.391a.624.624,0,0,0,.059-.822.548.548,0,0,0-.763,0" transform="translate(-58.471 -69.7)" fill="#00cc97"/>
    <path id="Path_257" data-name="Path 257" d="M73.733,102.212a.582.582,0,1,0-.763.88l6.983,5.985a.431.431,0,0,0,.352.117.533.533,0,0,0,.411-.176.628.628,0,0,0-.059-.822Z" transform="translate(-60.413 -78.563)" fill="#00cc97"/>
    <path id="Path_258" data-name="Path 258" d="M77.133,99.312a.582.582,0,1,0-.763.88l4.929,4.284a.431.431,0,0,0,.352.117.533.533,0,0,0,.411-.176A.628.628,0,0,0,82,103.6Z" transform="translate(-61.817 -77.365)" fill="#00cc97"/>
</svg>
