<svg xmlns="http://www.w3.org/2000/svg" width="32" height="46" viewBox="0 0 32 46">
    <g id="Group_488" data-name="Group 488" transform="translate(0 0)" fill="none" stroke-linecap="round" stroke="#fff" stroke-width="2">

        <path id="Path_274" data-name="Path 274" d="M66.7,62a15.118,15.118,0,0,0-15,15.182V90.818a15,15,0,1,0,30,0V77.182A15.118,15.118,0,0,0,66.7,62" transform="translate(-50.7 -61)" />
        <g id="Group_487" data-name="Group 487" transform="translate(0 0.93)">
            <path id="Path_275" data-name="Path 275" d="M78.385,104.586l-8.717-7.528a1.417,1.417,0,0,1-.453-1.019,1.325,1.325,0,0,1,.453-1.019l8.717-7.528" transform="translate(-57.858 -71.662)" />
            <path id="Path_277" data-name="Path 277" d="M17103.094-593.11l-4.311-3.858" transform="translate(-17082.561 621.663)" />
            <path id="Path_276" data-name="Path 276" d="M17102.592-611.094l-9.434,8.109" transform="translate(-17082.361 622.164)" />
        </g>
    </g>
</svg>
