<svg xmlns="http://www.w3.org/2000/svg" width="1294" height="312" viewBox="0 0 1294 312"><defs><style>.a{fill:#496e68;}.b,.c,.e{fill:#fff;font-family:Poppins-Regular, Poppins;}.b{font-size:27px;letter-spacing:0.081em;}.c{font-size:21px;letter-spacing:0.171em;}.d{fill:none;stroke:#f4f4f4;opacity:0.38;}.e{font-size:18px;}.f{fill:#91ccbd;}.g{fill:#50eea4;}</style></defs><g transform="translate(-320 -445)"><rect class="a" width="1294" height="312" transform="translate(320 445)"/><text class="b" transform="translate(448 538)"><tspan x="0" y="0">GUIDED</tspan></text><text class="b" transform="translate(1086 538)"><tspan x="0" y="0">DIGITAL</tspan></text><text class="c" transform="translate(448 562)"><tspan x="0" y="0">Experiences</tspan></text><text class="c" transform="translate(1086 562)"><tspan x="0" y="0">Experiences</tspan></text><line class="d" y2="224" transform="translate(967.5 493.5)"/><text class="e" transform="translate(1024 601)"><tspan x="0" y="19">Digital Guides are recipes for amazing experiences that </tspan><tspan x="0" y="46">you can do at your own pace in your own time. Get them </tspan><tspan x="0" y="73">once. Keep them forever.</tspan></text><text class="e" transform="translate(396 595)"><tspan x="0" y="19">Guided experiences are packages that can include a </tspan><tspan x="0" y="46">full experience or set parts. You can include </tspan><tspan x="0" y="73">accommodation, food, transfer, activities for a set price.</tspan></text><path class="f" d="M17.751,8.193a4.1,4.1,0,1,0-4.1-4.1A4.1,4.1,0,0,0,17.751,8.193Zm8.065,12.724L23.827,19.91,23,17.4a9.3,9.3,0,0,0-8.722-6.477c-3.072-.009-4.771.862-7.962,2.151a8.141,8.141,0,0,0-4.241,3.943L1.5,18.178a2.74,2.74,0,0,0,1.212,3.661,2.694,2.694,0,0,0,3.627-1.22l.572-1.161A2.713,2.713,0,0,1,8.32,18.144l2.287-.922L9.31,22.4a5.481,5.481,0,0,0,1.272,5.018L15.694,33a5.508,5.508,0,0,1,1.272,2.364l1.562,6.256a2.731,2.731,0,1,0,5.3-1.323l-1.895-7.6a5.459,5.459,0,0,0-1.272-2.364L16.778,26.1l1.468-5.863.469,1.408A5.443,5.443,0,0,0,21.42,24.8l1.988,1.007a2.694,2.694,0,0,0,3.627-1.22,2.763,2.763,0,0,0-1.22-3.67ZM6.281,32.925A5.3,5.3,0,0,1,5.069,34.76L.8,39.035A2.731,2.731,0,0,0,4.659,42.9l5.069-5.069A5.547,5.547,0,0,0,10.94,36l1.152-2.885c-4.719-5.146-3.3-3.567-4.045-4.583l-1.767,4.4Z" transform="translate(1035.832 518.149)"/><path class="g" d="M6.908,40.3a2.731,2.731,0,0,0,5.3,1.325l2.154-8.617-4.5-4.5L6.908,40.3ZM8.179,23.564,11.692,9.985a1.339,1.339,0,0,0-1.017-1.627A7.015,7.015,0,0,0,2.2,13.237L.042,21.612a1.339,1.339,0,0,0,1.017,1.627l5.424,1.3a1.4,1.4,0,0,0,1.7-.976Zm23.227-9.909H30.04a1.365,1.365,0,0,0-1.365,1.365v1.365H25.709l-3.992-3.992a5.016,5.016,0,0,0-8.414,2.33l-2.3,9.193a2.732,2.732,0,0,0,.719,2.594L19.117,33.9v7.062a2.731,2.731,0,1,0,5.462,0V33.9a5.426,5.426,0,0,0-1.6-3.862l-4-4c.013-.043.042-.076.053-.12l1.7-6.791,1.914,1.914a2.731,2.731,0,0,0,1.93.8h4.1V42.33A1.365,1.365,0,0,0,30.039,43.7H31.4A1.365,1.365,0,0,0,32.77,42.33V15.02a1.364,1.364,0,0,0-1.365-1.365ZM20.482,8.193a4.1,4.1,0,1,0-4.1-4.1A4.1,4.1,0,0,0,20.482,8.193Z" transform="translate(392.396 518.155)"/></g></svg>