<svg xmlns="http://www.w3.org/2000/svg"
    xmlns:xlink="http://www.w3.org/1999/xlink" width="1920" height="896" viewBox="0 0 1920 896">
    <defs>
        <clipPath id="a">
            <rect width="1920" height="896" fill="none" stroke="#707070" stroke-width="1"/>
        </clipPath>
    </defs>
    <g clip-path="url(#a)">
        <path d="M1511.677,1C1283.668,140,957.5,238.033,716.693,348.351c-115.38,52.858-215.952,115.62-345.84,123.624C247.359,479.589,120.723,457.578.5,488.184" transform="translate(-0.5 -304.625)" fill="none" stroke="#dce9e3" stroke-miterlimit="10" stroke-width="2"/>
        <path d="M1920.5,39c-198.823,52.027-389.853,233.211-537.47,268.32C1298.666,327.38,1212.1,336.9,1130.5,367.631c-86.445,32.557-165.276,81.582-249.67,118.712C601.443,609.187,277.424,553.438.5,678.7" transform="translate(-0.5 -304.605)" fill="none" stroke="#c6e5d5" stroke-miterlimit="10" stroke-width="2"/>
        <path d="M1920.5,416.549c-104.6-16.949-213.541-31.406-315.744,4.933-77.75,27.644-436.984,340.2-582.233,371.854-179.093,39.02-363.949,1.361-544.484,25.783C309.441,841.941,165.086,940.712.5,976.3" transform="translate(-0.5 -304.417)" fill="none" stroke="#b4d6c8" stroke-miterlimit="10" stroke-width="2"/>
        <path d="M1919.9,512.18c-35.879,16.719-72.037,32.727-108.817,47.465-90.187,36.2-186.977,58.34-272.8,104.8-154.871,83.834-315.164,307.96-391.2,535.889" transform="translate(0.097 -304.358)" fill="none" stroke="#a6d1bd" stroke-miterlimit="10" stroke-width="2"/>
        <path d="M982.4,4.34c-78.111,59.461-148.968,91.438-205,110-75.759,25.063-139.463,30.556-256,79.972-90.757,38.48-142.935,73.658-176,91.968-70.9,39.26-177.793,69.7-344.9,50.556" transform="translate(-0.5 -304.623)" fill="none" stroke="#cbecdd" stroke-miterlimit="10" stroke-width="2"/>
        <path d="M1023.948,1200.118c48.245-72.648,66.094-139.072,41.672-179.944-34.218-57.32-142.484-49.566-276-40.021-176.252,12.637-317.165,56.449-411.994,91.968a1853.517,1853.517,0,0,0-271.871,128" transform="translate(-0.446 -304.118)" fill="none" stroke="#cdeedf" stroke-miterlimit="10" stroke-width="2"/>
        <path d="M1919.684,644.73c-109.057,48.915-170.168,110.558-206.828,163.655-49.716,72.037-57.79,133.069-147.077,391.884" transform="translate(0.316 -304.289)" fill="none" stroke="#a4cebb" stroke-miterlimit="10" stroke-width="2"/>
    </g>
</svg>